<svg width="52" height="38" viewBox="0 0 52 38" fill="none" xmlns="http://www.w3.org/2000/svg">
<path d="M36.1929 8.80289C38.8882 11.5089 40.4019 15.1763 40.4019 19C40.4019 22.8237 38.8882 26.4911 36.1929 29.1971M42.9802 2C47.4752 6.51048 50 12.6249 50 19C50 25.3751 47.4752 31.4895 42.9802 36M9.01977 36C4.52481 31.4895 2 25.3751 2 19C2 12.6249 4.52481 6.51048 9.01977 2M15.8071 29.1971C13.1118 26.4911 11.5981 22.8237 11.5981 19C11.5981 15.1763 13.1118 11.5089 15.8071 8.80289M30.8001 19C30.8001 21.6571 28.651 23.8111 26 23.8111C23.349 23.8111 21.1999 21.6571 21.1999 19C21.1999 16.3429 23.349 14.1889 26 14.1889C28.651 14.1889 30.8001 16.3429 30.8001 19Z" stroke="black" stroke-width="2.5" stroke-linecap="round" stroke-linejoin="round"/>
</svg>
