<svg width="40" height="40" viewBox="0 0 40 40" fill="none" xmlns="http://www.w3.org/2000/svg">
<path d="M16.4 24.788V27.7148C16.3932 28.3315 16.2281 28.9362 15.9204 29.4707C15.6128 30.0053 15.173 30.4519 14.6432 30.7676C13.5185 31.6007 12.6035 32.6846 11.9711 33.9332C11.3386 35.1818 11.0061 36.5608 11 37.9604M23.6 24.788V27.7148C23.6068 28.3315 23.7719 28.9362 24.0796 29.4707C24.3872 30.0053 24.827 30.4519 25.3568 30.7676C26.4815 31.6007 27.3965 32.6846 28.0289 33.9332C28.6614 35.1818 28.9939 36.5608 29 37.9604M30.8 14.6H33.5C34.6935 14.6 35.8381 14.1259 36.682 13.282C37.5259 12.4381 38 11.2935 38 10.1C38 8.90653 37.5259 7.76193 36.682 6.91802C35.8381 6.07411 34.6935 5.6 33.5 5.6H30.8M30.8 14.6C30.8 17.4643 29.6621 20.2114 27.6368 22.2368C25.6114 24.2621 22.8643 25.4 20 25.4C17.1357 25.4 14.3886 24.2621 12.3632 22.2368C10.3379 20.2114 9.2 17.4643 9.2 14.6M30.8 14.6V3.8C30.8 3.32261 30.6104 2.86477 30.2728 2.52721C29.9352 2.18964 29.4774 2 29 2H11C10.5226 2 10.0648 2.18964 9.72721 2.52721C9.38964 2.86477 9.2 3.32261 9.2 3.8V14.6M5.6 38H34.4M9.2 14.6H6.5C5.30653 14.6 4.16193 14.1259 3.31802 13.282C2.47411 12.4381 2 11.2935 2 10.1C2 8.90653 2.47411 7.76193 3.31802 6.91802C4.16193 6.07411 5.30653 5.6 6.5 5.6H9.2" stroke="#545454" stroke-width="2.5" stroke-linecap="round" stroke-linejoin="round"/>
</svg>
