<svg width="56" height="56" viewBox="0 0 56 56" fill="none" xmlns="http://www.w3.org/2000/svg">
<path d="M38.1929 17.8029C40.8882 20.5089 42.4019 24.1763 42.4019 28C42.4019 31.8237 40.8882 35.4911 38.1929 38.1971M44.9802 11C49.4752 15.5105 52 21.6249 52 28C52 34.3751 49.4752 40.4895 44.9802 45M11.0198 45C6.52481 40.4895 4 34.3751 4 28C4 21.6249 6.52481 15.5105 11.0198 11M17.8071 38.1971C15.1118 35.4911 13.5981 31.8237 13.5981 28C13.5981 24.1763 15.1118 20.5089 17.8071 17.8029M32.8001 28C32.8001 30.6571 30.651 32.8111 28 32.8111C25.349 32.8111 23.1999 30.6571 23.1999 28C23.1999 25.3429 25.349 23.1889 28 23.1889C30.651 23.1889 32.8001 25.3429 32.8001 28Z" stroke="white" stroke-width="2.5" stroke-linecap="round" stroke-linejoin="round"/>
</svg>
