<svg width="56" height="56" viewBox="0 0 56 56" fill="none" xmlns="http://www.w3.org/2000/svg">
<path d="M9 45.0526C8.99984 42.0543 9.84386 39.1197 11.4308 36.6008C13.0177 34.082 15.28 32.086 17.9463 30.8524C20.6127 29.6189 23.5697 29.2001 26.4624 29.6464C29.3552 30.0927 32.0609 31.385 34.2548 33.3684M41.3 35.3158V47M47 41.1579H35.6M33.7 19.7368C33.7 25.1144 29.4467 29.4737 24.2 29.4737C18.9533 29.4737 14.7 25.1144 14.7 19.7368C14.7 14.3593 18.9533 10 24.2 10C29.4467 10 33.7 14.3593 33.7 19.7368Z" stroke="#545454" stroke-width="2.5" stroke-linecap="round" stroke-linejoin="round"/>
</svg>
