<svg width="26" height="26" viewBox="0 0 26 26" fill="none" xmlns="http://www.w3.org/2000/svg">
<path d="M7.4 16.2V13.8C7.4 13.5878 7.48429 13.3843 7.63431 13.2343C7.78434 13.0843 7.98783 13 8.2 13H17.8C18.0122 13 18.2157 13.0843 18.3657 13.2343C18.5157 13.3843 18.6 13.5878 18.6 13.8V16.2M13 13V9.8M17 16.2H20.2C20.6418 16.2 21 16.5582 21 17V20.2C21 20.6418 20.6418 21 20.2 21H17C16.5582 21 16.2 20.6418 16.2 20.2V17C16.2 16.5582 16.5582 16.2 17 16.2ZM5.8 16.2H9C9.44183 16.2 9.8 16.5582 9.8 17V20.2C9.8 20.6418 9.44183 21 9 21H5.8C5.35817 21 5 20.6418 5 20.2V17C5 16.5582 5.35817 16.2 5.8 16.2ZM11.4 5H14.6C15.0418 5 15.4 5.35817 15.4 5.8V9C15.4 9.44183 15.0418 9.8 14.6 9.8H11.4C10.9582 9.8 10.6 9.44183 10.6 9V5.8C10.6 5.35817 10.9582 5 11.4 5Z" stroke="#A2A2A2" stroke-width="1.5" stroke-linecap="round" stroke-linejoin="round"/>
</svg>
