<svg width="23" height="21" viewBox="0 0 23 21" fill="none" xmlns="http://www.w3.org/2000/svg">
<path d="M20 10.5H17.892C17.5205 10.4992 17.159 10.6201 16.8628 10.8442C16.5665 11.0683 16.3518 11.3833 16.2515 11.741L14.254 18.847C14.2411 18.8911 14.2143 18.9299 14.1775 18.9575C14.1407 18.9851 14.096 19 14.05 19C14.004 19 13.9593 18.9851 13.9225 18.9575C13.8857 18.9299 13.8589 18.8911 13.846 18.847L9.154 2.153C9.14113 2.10886 9.11428 2.07009 9.0775 2.0425C9.04072 2.01491 8.99598 2 8.95 2C8.90402 2 8.85928 2.01491 8.8225 2.0425C8.78572 2.07009 8.75887 2.10886 8.746 2.153L6.7485 9.259C6.6486 9.61528 6.43517 9.92924 6.14063 10.1532C5.84609 10.3772 5.48652 10.4989 5.1165 10.5H3" stroke="#A2A2A2" stroke-width="1.5" stroke-linecap="round" stroke-linejoin="round"/>
</svg>
