<svg width="26" height="26" viewBox="0 0 26 26" fill="none" xmlns="http://www.w3.org/2000/svg">
<path d="M4.5326 13.5893C3.55717 13.1764 2.9707 12.2328 2.9707 11.241C2.9707 10.9064 3.03755 10.5627 3.17733 10.2371C3.59364 9.26947 4.54476 8.68766 5.5445 8.68766C5.88179 8.68766 6.2282 8.75398 6.55638 8.89265C7.53181 9.30564 8.11829 10.2492 8.11829 11.241C8.11829 11.3676 8.09702 11.4972 8.07878 11.6238L9.53736 12.2418C10.0631 11.3978 10.9443 10.8039 11.9775 10.6592V9.01625C10.8683 8.73288 10.0448 7.7441 10.0448 6.55334C10.0448 5.14252 11.1965 4 12.6186 4C14.0407 4 15.1924 5.14252 15.1924 6.55334C15.1924 7.87071 14.1805 8.9439 12.8891 9.07955V10.6532C14.0894 10.8009 15.0952 11.5485 15.5844 12.5976L16.9366 11.9132C16.8941 11.7294 16.8698 11.5425 16.8698 11.3586C16.8698 10.4301 17.3833 9.53475 18.2737 9.08257C18.6474 8.89265 19.0485 8.80221 19.4436 8.80221C20.3795 8.80221 21.282 9.31167 21.7378 10.1949H21.7469C21.9384 10.5657 22.0295 10.9637 22.0295 11.3556C22.0295 12.284 21.516 13.1794 20.6256 13.6316M4.5326 13.5893L4.71188 13.1733M4.5326 13.5893C4.86078 13.728 5.2072 13.7943 5.5445 13.7943C6.45611 13.7943 7.32215 13.306 7.78707 12.483L9.17576 13.0708C9.08459 13.3783 9.02079 13.6949 9.02079 14.0325C9.02079 14.8404 9.3125 15.5699 9.7835 16.1547L8.76249 17.3455C8.32492 17.0471 7.82049 16.8903 7.31606 16.8933C6.58981 16.8933 5.86356 17.1978 5.3561 17.7917C4.94283 18.271 4.73923 18.8618 4.74227 19.4467C4.74227 20.1671 5.04918 20.8876 5.64781 21.3911C6.13097 21.801 6.72655 22 7.31606 22C8.04232 22 8.76857 21.6955 9.27604 21.1017C9.6893 20.6223 9.88986 20.0315 9.88986 19.4467C9.88986 18.9312 9.72577 18.4187 9.41582 17.9816L10.4399 16.7878C11.0111 17.2008 11.707 17.454 12.4667 17.454C13.2294 17.454 13.9283 17.2008 14.5026 16.7818L15.4902 17.9364C15.1803 18.3735 15.0131 18.889 15.0131 19.4075C15.0131 19.9893 15.2137 20.5801 15.6239 21.0595C16.1314 21.6533 16.8607 21.9608 17.5869 21.9608C18.1734 21.9608 18.769 21.7618 19.2521 21.3549C19.8508 20.8514 20.1607 20.128 20.1607 19.4075C20.1607 18.8257 19.9602 18.2348 19.5499 17.7555C19.0425 17.1616 18.3132 16.8541 17.5869 16.8541C17.0855 16.8541 16.5841 17.0079 16.1466 17.3033L15.159 16.1487C15.6269 15.5639 15.9187 14.8374 15.9187 14.0325C15.9187 13.8426 15.8913 13.6617 15.864 13.4808L17.3195 12.7423C17.8057 13.4778 18.6079 13.9119 19.4557 13.9119C19.8508 13.9119 20.2519 13.8215 20.6256 13.6316M20.6256 13.6316L20.419 13.2276M6.04892 18.3795C5.78152 18.69 5.65085 19.0668 5.65085 19.4467C5.65085 19.9139 5.84836 20.3751 6.23428 20.7007C6.54727 20.966 6.92711 21.0956 7.30999 21.0956C7.78099 21.0956 8.24591 20.8997 8.5741 20.5168C8.8415 20.2063 8.97217 19.8295 8.97217 19.4497C8.97217 18.9824 8.77465 18.5212 8.38873 18.1956C8.07574 17.9303 7.69591 17.8007 7.31303 17.8007C6.84203 17.8007 6.3771 17.9966 6.04892 18.3795ZM6.04892 18.3795L5.70251 18.0871M7.06689 11.8891C6.79644 12.5162 6.18262 12.89 5.53841 12.89C5.31962 12.89 5.10084 12.8478 4.88509 12.7573C4.25304 12.489 3.87623 11.8801 3.87623 11.241C3.87623 11.0239 3.91878 10.8069 4.00994 10.5929C4.28038 9.96583 4.8942 9.59203 5.53841 9.59203C5.7572 9.59203 5.97599 9.63423 6.19174 9.72467C6.8238 9.99297 7.20059 10.6019 7.20059 11.241C7.20059 11.458 7.15805 11.6751 7.06689 11.8891ZM10.9564 6.55636C10.9564 5.64596 11.7009 4.9104 12.6186 4.90739C13.5363 4.90739 14.2778 5.64596 14.2808 6.55636C14.2808 7.46676 13.5363 8.20231 12.6186 8.20533C11.7009 8.20533 10.9595 7.46676 10.9564 6.55636ZM9.92632 14.0355C9.92632 12.6458 11.0628 11.5214 12.4606 11.5214C13.8615 11.5214 14.9949 12.6488 14.9949 14.0355C14.9949 15.4252 13.8584 16.5497 12.4606 16.5497C11.0598 16.5497 9.92632 15.4222 9.92632 14.0355ZM17.5808 17.7615C18.0549 17.7615 18.5198 17.9575 18.848 18.3433C19.1124 18.6538 19.243 19.0306 19.243 19.4075C19.243 19.8777 19.0455 20.339 18.6566 20.6645C18.3436 20.9268 17.9637 21.0564 17.5839 21.0564C17.1098 21.0564 16.6449 20.8605 16.3167 20.4746C16.0524 20.1641 15.9217 19.7873 15.9217 19.4105C15.9217 18.9402 16.1192 18.479 16.5082 18.1534C16.8212 17.8911 17.201 17.7615 17.5808 17.7615ZM20.2002 12.8267C19.9571 12.9503 19.6988 13.0075 19.4466 13.0075C18.8419 13.0075 18.2585 12.6789 17.9668 12.1092C17.8422 11.868 17.7844 11.6118 17.7844 11.3616C17.7844 10.7617 18.1157 10.1829 18.69 9.89348C18.9331 9.76989 19.1914 9.71261 19.4436 9.71261C20.0483 9.71261 20.6317 10.0412 20.9234 10.611C21.048 10.8521 21.1058 11.1084 21.1058 11.3586C21.1058 11.9585 20.7745 12.5373 20.2002 12.8267Z" stroke="#A2A2A2" stroke-miterlimit="10"/>
</svg>
