<svg width="26" height="26" viewBox="0 0 26 26" fill="none" xmlns="http://www.w3.org/2000/svg">
<path d="M4.7202 13.8708H10.3601C11.0246 13.8708 11.5647 13.3222 11.5647 12.6473V5.00377C11.5647 4.32885 11.0246 3.78027 10.3601 3.78027H4.7202C4.05572 3.78027 3.51562 4.32885 3.51562 5.00377V12.6473C3.51562 13.3222 4.05572 13.8708 4.7202 13.8708ZM4.50088 5.00709C4.50088 4.88408 4.59909 4.78434 4.7202 4.78434H10.3601C10.4812 4.78434 10.5794 4.88408 10.5794 5.00709V12.6506C10.5794 12.7736 10.4812 12.8734 10.3601 12.8734H4.7202C4.59909 12.8734 4.50088 12.7736 4.50088 12.6506V5.00709Z" stroke="#A2A2A2" stroke-miterlimit="10"/>
<path d="M20.5967 11.6934H14.3905C13.8831 11.6934 13.4707 12.1123 13.4707 12.6276V20.843C13.4707 21.3583 13.8831 21.7772 14.3905 21.7772H20.5967C21.1041 21.7772 21.5165 21.3583 21.5165 20.843V12.6276C21.5165 12.1123 21.1041 11.6934 20.5967 11.6934ZM20.5312 12.6941V20.7831H14.4527V12.6941H20.5312Z" stroke="#A2A2A2" stroke-miterlimit="10"/>
<path d="M20.6094 3.78613H14.3247C13.8239 3.78613 13.4212 4.1984 13.418 4.70708V8.88292C13.418 9.3916 13.8239 9.80054 14.3247 9.80386H20.6094C21.1102 9.80386 21.5129 9.3916 21.5161 8.88292V4.70708C21.5161 4.1984 21.1102 3.78946 20.6094 3.78613ZM20.5309 4.78355V8.7998H14.4032V4.78355H20.5309Z" stroke="#A2A2A2" stroke-miterlimit="10"/>
<path d="M10.6612 15.7656H4.46488C3.94115 15.7656 3.51562 16.1978 3.51562 16.7298V20.8159C3.51562 21.3478 3.94115 21.78 4.46488 21.78H10.6612C11.185 21.78 11.6105 21.3478 11.6105 20.8159V16.7298C11.6105 16.1978 11.185 15.7656 10.6612 15.7656ZM10.6285 16.763V20.7793H4.50088V16.763H10.6285Z" stroke="#A2A2A2" stroke-miterlimit="10"/>
</svg>
