<svg width="26" height="26" viewBox="0 0 26 26" fill="none" xmlns="http://www.w3.org/2000/svg">
<path d="M20.9206 6.75025H18.6453V5H17.6981V6.75025H9.25787V5H8.31063V6.75025H6.08571C5.48464 6.75025 5 7.18781 5 7.72418V21.0261C5 21.5653 5.48779 22 6.08571 22H20.9143C21.5154 22 22 21.5624 22 21.0261V7.72418C22 7.18499 21.5122 6.75025 20.9143 6.75025H20.9206ZM6.092 7.59714H20.9206L21.0622 7.72418V10.5048H5.95039V7.72418L6.092 7.59714ZM20.9206 21.1531H6.092L5.95039 21.0261V11.3517H21.0622V21.0261L20.9206 21.1531Z" stroke="#A2A2A2" stroke-miterlimit="10"/>
<path d="M17.6568 13.8984H13.9244C13.443 13.8984 13.0559 14.2485 13.0527 14.6804V18.0285C13.0527 18.4604 13.443 18.8076 13.9244 18.8104H17.6568C18.1383 18.8104 18.5253 18.4604 18.5285 18.0285V14.6804C18.5285 14.2485 18.1383 13.9013 17.6568 13.8984ZM14 14.7453H17.5812V17.9579H14V14.7453Z" stroke="#A2A2A2" stroke-miterlimit="10"/>
</svg>
