<svg width="20" height="20" viewBox="0 0 20 20" fill="none" xmlns="http://www.w3.org/2000/svg">
<path d="M18.739 9.28463C16.033 6.61016 13.33 3.93272 10.627 1.25825C10.456 1.08608 10.225 1 10 1C9.77504 1 9.54404 1.08608 9.37304 1.25825C6.67005 3.93272 3.96406 6.61016 1.26107 9.28463C1.08707 9.45383 0.997073 9.68536 1.00007 9.90205C1.00007 10.1276 1.08707 10.3414 1.24307 10.5076C1.39607 10.6738 1.63307 10.7866 1.89107 10.7836H3.16606V17.5188C3.16606 18.3381 3.83806 19 4.66306 19H6.58905C7.20705 19 7.70805 18.5073 7.71405 17.8958L7.75004 13.3156C7.75004 13.2147 7.83405 13.1346 7.93304 13.1346H12.079C12.181 13.1346 12.262 13.2147 12.262 13.3156C12.265 14.8384 12.268 16.3641 12.271 17.8869C12.271 18.5013 12.775 18.997 13.396 18.997H15.34C16.168 18.997 16.837 18.3321 16.837 17.5158V10.7807H18.112C18.37 10.7807 18.607 10.6708 18.76 10.5046C18.916 10.3384 19 10.1247 19 9.89908C19 9.68239 18.913 9.45086 18.739 9.28166V9.28463ZM15.934 17.5188C15.934 17.8453 15.667 18.1095 15.337 18.1095H13.393C13.27 18.1095 13.171 18.0115 13.171 17.8898C13.168 16.3671 13.165 14.8414 13.162 13.3186C13.162 12.7249 12.676 12.247 12.076 12.247H7.93005C7.33305 12.247 6.85005 12.722 6.84405 13.3127L6.80805 17.8928C6.80805 18.0145 6.70605 18.1125 6.58605 18.1125H4.66006C4.33006 18.1125 4.06306 17.8483 4.06306 17.5218V10.7866H15.937V17.5218L15.934 17.5188ZM3.16006 9.89017H1.91807C4.61206 7.22461 7.30605 4.55904 10 1.89347C12.694 4.55904 15.388 7.22461 18.082 9.89017H3.16306H3.16006Z" stroke="#3359FF" stroke-miterlimit="10"/>
</svg>
