<svg width="26" height="26" viewBox="0 0 26 26" fill="none" xmlns="http://www.w3.org/2000/svg">
<path d="M13.4574 8.38297V20.2233M13.4574 8.38297C13.4574 7.48575 13.101 6.62528 12.4666 5.99085C11.8321 5.35642 10.9717 5 10.0744 5H5.84574C5.62144 5 5.40632 5.0891 5.24771 5.24771C5.0891 5.40632 5 5.62144 5 5.84574V16.8404C5 17.0647 5.0891 17.2798 5.24771 17.4384C5.40632 17.597 5.62144 17.6861 5.84574 17.6861H10.9202C11.5931 17.6861 12.2385 17.9534 12.7143 18.4293C13.1901 18.9051 13.4574 19.5504 13.4574 20.2233M13.4574 8.38297C13.4574 7.48575 13.8138 6.62528 14.4483 5.99085C15.0827 5.35642 15.9432 5 16.8404 5H21.0691C21.2934 5 21.5085 5.0891 21.6671 5.24771C21.8257 5.40632 21.9148 5.62144 21.9148 5.84574V16.8404C21.9148 17.0647 21.8257 17.2798 21.6671 17.4384C21.5085 17.597 21.2934 17.6861 21.0691 17.6861H15.9946C15.3217 17.6861 14.6764 17.9534 14.2006 18.4293C13.7247 18.9051 13.4574 19.5504 13.4574 20.2233M16.8404 12.6117H18.5319M16.8404 9.22871H18.5319M8.38297 12.6117H10.0744M8.38297 9.22871H10.0744" stroke="#A2A2A2" stroke-width="1.5" stroke-linecap="round" stroke-linejoin="round"/>
</svg>
