<svg width="80" height="80" viewBox="0 0 80 80" fill="none" xmlns="http://www.w3.org/2000/svg">
<g filter="url(#filter0_d_2876_129362)">
<rect x="16" y="12" width="48" height="48" rx="8" fill="white" shape-rendering="crispEdges"/>
<path d="M37.8824 46.8001C38.097 47.1649 38.4055 47.4679 38.7771 47.6785C39.1487 47.8891 39.5703 48 39.9993 48C40.4284 48 40.8499 47.8891 41.2215 47.6785C41.5931 47.4679 41.9017 47.1649 42.1163 46.8001M29.3193 39.9913C29.1597 40.1631 29.0543 40.3768 29.016 40.6063C28.9778 40.8358 29.0083 41.0713 29.1039 41.2842C29.1994 41.497 29.3559 41.6779 29.5543 41.805C29.7527 41.9322 29.9845 41.9999 30.2214 42.0001H49.7773C50.0142 42.0002 50.246 41.9327 50.4445 41.8058C50.643 41.6789 50.7997 41.4982 50.8955 41.2855C50.9914 41.0728 51.0222 40.8374 50.9842 40.6078C50.9463 40.3783 50.8412 40.1645 50.6818 39.9925C49.0562 38.3473 47.3328 36.5989 47.3328 31.2C47.3328 29.2905 46.5602 27.4591 45.1849 26.1088C43.8096 24.7586 41.9443 24 39.9993 24C38.0544 24 36.1891 24.7586 34.8138 26.1088C33.4385 27.4591 32.6658 29.2905 32.6658 31.2C32.6658 36.5989 30.9413 38.3473 29.3193 39.9913Z" stroke="black" stroke-width="1.5" stroke-linecap="round" stroke-linejoin="round"/>
</g>
<defs>
<filter id="filter0_d_2876_129362" x="0" y="0" width="80" height="80" filterUnits="userSpaceOnUse" color-interpolation-filters="sRGB">
<feFlood flood-opacity="0" result="BackgroundImageFix"/>
<feColorMatrix in="SourceAlpha" type="matrix" values="0 0 0 0 0 0 0 0 0 0 0 0 0 0 0 0 0 0 127 0" result="hardAlpha"/>
<feOffset dy="4"/>
<feGaussianBlur stdDeviation="8"/>
<feComposite in2="hardAlpha" operator="out"/>
<feColorMatrix type="matrix" values="0 0 0 0 0 0 0 0 0 0.6 0 0 0 0 0.440541 0 0 0 0.08 0"/>
<feBlend mode="multiply" in2="BackgroundImageFix" result="effect1_dropShadow_2876_129362"/>
<feBlend mode="normal" in="SourceGraphic" in2="effect1_dropShadow_2876_129362" result="shape"/>
</filter>
</defs>
</svg>
