<svg width="80" height="80" viewBox="0 0 80 80" fill="none" xmlns="http://www.w3.org/2000/svg">
<g filter="url(#filter0_d_2876_129356)">
<rect x="16" y="12" width="48" height="48" rx="8" fill="white" shape-rendering="crispEdges"/>
<path d="M40.2684 24H39.7316C39.0846 24 38.4641 24.2529 38.0065 24.7029C37.549 25.153 37.292 25.7635 37.292 26.4V26.616C37.2915 27.0369 37.1786 27.4502 36.9645 27.8146C36.7504 28.179 36.4426 28.4816 36.0721 28.692L35.5476 28.992C35.1767 29.2026 34.756 29.3135 34.3277 29.3135C33.8995 29.3135 33.4788 29.2026 33.1079 28.992L32.9249 28.896C32.3651 28.5783 31.7 28.4921 31.0757 28.6564C30.4513 28.8206 29.9187 29.2218 29.5948 29.772L29.3264 30.228C29.0035 30.7787 28.9159 31.433 29.0828 32.0472C29.2498 32.6614 29.6576 33.1853 30.2169 33.504L30.3999 33.624C30.7686 33.8334 31.0752 34.1341 31.2892 34.4962C31.5032 34.8583 31.6171 35.2692 31.6197 35.688V36.3C31.6214 36.7229 31.5095 37.1387 31.2953 37.5054C31.0811 37.8721 30.7722 38.1765 30.3999 38.388L30.2169 38.496C29.6576 38.8147 29.2498 39.3386 29.0828 39.9528C28.9159 40.567 29.0035 41.2213 29.3264 41.772L29.5948 42.228C29.9187 42.7782 30.4513 43.1794 31.0757 43.3436C31.7 43.5079 32.3651 43.4217 32.9249 43.104L33.1079 43.008C33.4788 42.7974 33.8995 42.6865 34.3277 42.6865C34.756 42.6865 35.1767 42.7974 35.5476 43.008L36.0721 43.308C36.4426 43.5184 36.7504 43.821 36.9645 44.1854C37.1786 44.5498 37.2915 44.9631 37.292 45.384V45.6C37.292 46.2365 37.549 46.847 38.0065 47.2971C38.4641 47.7471 39.0846 48 39.7316 48H40.2684C40.9154 48 41.5359 47.7471 41.9935 47.2971C42.451 46.847 42.708 46.2365 42.708 45.6V45.384C42.7085 44.9631 42.8214 44.5498 43.0355 44.1854C43.2496 43.821 43.5574 43.5184 43.9279 43.308L44.4524 43.008C44.8233 42.7974 45.244 42.6865 45.6723 42.6865C46.1005 42.6865 46.5212 42.7974 46.8921 43.008L47.0751 43.104C47.6349 43.4217 48.3 43.5079 48.9243 43.3436C49.5487 43.1794 50.0813 42.7782 50.4052 42.228L50.6736 41.76C50.9965 41.2093 51.0841 40.555 50.9172 39.9408C50.7502 39.3266 50.3424 38.8027 49.7831 38.484L49.6001 38.388C49.2278 38.1765 48.9189 37.8721 48.7047 37.5054C48.4905 37.1387 48.3786 36.7229 48.3803 36.3V35.7C48.3786 35.2771 48.4905 34.8613 48.7047 34.4946C48.9189 34.1279 49.2278 33.8235 49.6001 33.612L49.7831 33.504C50.3424 33.1853 50.7502 32.6614 50.9172 32.0472C51.0841 31.433 50.9965 30.7787 50.6736 30.228L50.4052 29.772C50.0813 29.2218 49.5487 28.8206 48.9243 28.6564C48.3 28.4921 47.6349 28.5783 47.0751 28.896L46.8921 28.992C46.5212 29.2026 46.1005 29.3135 45.6723 29.3135C45.244 29.3135 44.8233 29.2026 44.4524 28.992L43.9279 28.692C43.5574 28.4816 43.2496 28.179 43.0355 27.8146C42.8214 27.4502 42.7085 27.0369 42.708 26.616V26.4C42.708 25.7635 42.451 25.153 41.9935 24.7029C41.5359 24.2529 40.9154 24 40.2684 24Z" stroke="black" stroke-width="1.5" stroke-linecap="round" stroke-linejoin="round"/>
<path d="M40 39.6C42.0211 39.6 43.6595 37.9882 43.6595 36C43.6595 34.0118 42.0211 32.4 40 32.4C37.9789 32.4 36.3405 34.0118 36.3405 36C36.3405 37.9882 37.9789 39.6 40 39.6Z" stroke="black" stroke-width="1.5" stroke-linecap="round" stroke-linejoin="round"/>
</g>
<defs>
<filter id="filter0_d_2876_129356" x="0" y="0" width="80" height="80" filterUnits="userSpaceOnUse" color-interpolation-filters="sRGB">
<feFlood flood-opacity="0" result="BackgroundImageFix"/>
<feColorMatrix in="SourceAlpha" type="matrix" values="0 0 0 0 0 0 0 0 0 0 0 0 0 0 0 0 0 0 127 0" result="hardAlpha"/>
<feOffset dy="4"/>
<feGaussianBlur stdDeviation="8"/>
<feComposite in2="hardAlpha" operator="out"/>
<feColorMatrix type="matrix" values="0 0 0 0 0 0 0 0 0 0.6 0 0 0 0 0.440541 0 0 0 0.08 0"/>
<feBlend mode="multiply" in2="BackgroundImageFix" result="effect1_dropShadow_2876_129356"/>
<feBlend mode="normal" in="SourceGraphic" in2="effect1_dropShadow_2876_129356" result="shape"/>
</filter>
</defs>
</svg>
