<svg width="24" height="24" viewBox="0 0 24 24" fill="none" xmlns="http://www.w3.org/2000/svg">
<g clip-path="url(#clip0_3087_44827)">
<path fill-rule="evenodd" clip-rule="evenodd" d="M12 0C5.37231 0 0 5.37231 0 12C0 18.6277 5.37231 24 12 24C18.6277 24 24 18.6277 24 12C24 5.37231 18.6277 0 12 0ZM12.6523 6.73231C12.4792 6.55945 12.2446 6.46235 12 6.46235C11.7554 6.46235 11.5208 6.55945 11.3477 6.73231L7.65539 10.4246C7.56469 10.5091 7.49195 10.611 7.4415 10.7243C7.39105 10.8375 7.36392 10.9597 7.36173 11.0837C7.35955 11.2076 7.38235 11.3307 7.42877 11.4457C7.4752 11.5606 7.5443 11.665 7.63195 11.7527C7.71961 11.8403 7.82402 11.9094 7.93896 11.9558C8.0539 12.0023 8.17701 12.0251 8.30095 12.0229C8.42489 12.0207 8.54712 11.9936 8.66035 11.9431C8.77359 11.8927 8.87549 11.8199 8.96 11.7292L11.0769 9.61231V16.6154C11.0769 16.8602 11.1742 17.095 11.3473 17.2681C11.5204 17.4412 11.7552 17.5385 12 17.5385C12.2448 17.5385 12.4796 17.4412 12.6527 17.2681C12.8258 17.095 12.9231 16.8602 12.9231 16.6154V9.61231L15.04 11.7292C15.1245 11.8199 15.2264 11.8927 15.3396 11.9431C15.4529 11.9936 15.5751 12.0207 15.699 12.0229C15.823 12.0251 15.9461 12.0023 16.061 11.9558C16.176 11.9094 16.2804 11.8403 16.368 11.7527C16.4557 11.665 16.5248 11.5606 16.5712 11.4457C16.6177 11.3307 16.6405 11.2076 16.6383 11.0837C16.6361 10.9597 16.609 10.8375 16.5585 10.7243C16.508 10.611 16.4353 10.5091 16.3446 10.4246L12.6523 6.73231Z" fill="black"/>
</g>
<defs>
<clipPath id="clip0_3087_44827">
<rect width="24" height="24" fill="white"/>
</clipPath>
</defs>
</svg>
