<svg width="163" height="34" viewBox="0 0 163 34" fill="none" xmlns="http://www.w3.org/2000/svg">
<g clip-path="url(#clip0_2437_13902)">
<path d="M34.0815 0.00361779V34.1591C34.0399 34.1591 34.0001 34.1591 33.9585 34.1591C24.5253 34.1591 16.8789 26.5128 16.8789 17.0796C16.8789 7.64638 24.5253 0 33.9585 0C34.0001 0 34.0399 0 34.0815 0V0.00361779Z" fill="#FF9D00"/>
<path d="M21.8772 0.00390625C19.4719 6.77859 13.0064 11.6272 5.40709 11.6272C3.49007 11.6272 1.64539 11.3179 -0.078125 10.7483V0.00390625H21.8772Z" fill="#3359FF"/>
<path d="M17.2474 30.3624C17.2474 31.6681 17.1045 32.9377 16.8333 34.1602H-0.078125V12.8867C9.50517 12.9681 17.2474 20.761 17.2474 30.3624Z" fill="#1DB212"/>
</g>
<path d="M55.16 16.908C56.104 17.084 56.88 17.556 57.488 18.324C58.096 19.092 58.4 19.972 58.4 20.964C58.4 21.86 58.176 22.652 57.728 23.34C57.296 24.012 56.664 24.54 55.832 24.924C55 25.308 54.016 25.5 52.88 25.5H45.656V8.748H52.568C53.704 8.748 54.68 8.932 55.496 9.3C56.328 9.668 56.952 10.18 57.368 10.836C57.8 11.492 58.016 12.236 58.016 13.068C58.016 14.044 57.752 14.86 57.224 15.516C56.712 16.172 56.024 16.636 55.16 16.908ZM49.016 15.66H52.088C52.888 15.66 53.504 15.484 53.936 15.132C54.368 14.764 54.584 14.244 54.584 13.572C54.584 12.9 54.368 12.38 53.936 12.012C53.504 11.644 52.888 11.46 52.088 11.46H49.016V15.66ZM52.4 22.764C53.216 22.764 53.848 22.572 54.296 22.188C54.76 21.804 54.992 21.26 54.992 20.556C54.992 19.836 54.752 19.276 54.272 18.876C53.792 18.46 53.144 18.252 52.328 18.252H49.016V22.764H52.4ZM62.7819 10.62C62.1899 10.62 61.6939 10.436 61.2939 10.068C60.9099 9.684 60.7179 9.212 60.7179 8.652C60.7179 8.092 60.9099 7.628 61.2939 7.26C61.6939 6.876 62.1899 6.684 62.7819 6.684C63.3739 6.684 63.8619 6.876 64.2459 7.26C64.6459 7.628 64.8459 8.092 64.8459 8.652C64.8459 9.212 64.6459 9.684 64.2459 10.068C63.8619 10.436 63.3739 10.62 62.7819 10.62ZM64.4379 12.204V25.5H61.0779V12.204H64.4379ZM70.8296 22.74H76.7576V25.5H67.0136V22.788L72.8216 14.964H67.0376V12.204H76.6856V14.916L70.8296 22.74ZM78.5431 17.1C78.5431 15.452 78.9111 13.98 79.6471 12.684C80.3991 11.372 81.4151 10.356 82.6951 9.636C83.9911 8.9 85.4391 8.532 87.0391 8.532C88.9111 8.532 90.5511 9.012 91.9591 9.972C93.3671 10.932 94.3511 12.26 94.9111 13.956H91.0471C90.6631 13.156 90.1191 12.556 89.4151 12.156C88.7271 11.756 87.9271 11.556 87.0151 11.556C86.0391 11.556 85.1671 11.788 84.3991 12.252C83.6471 12.7 83.0551 13.34 82.6231 14.172C82.2071 15.004 81.9991 15.98 81.9991 17.1C81.9991 18.204 82.2071 19.18 82.6231 20.028C83.0551 20.86 83.6471 21.508 84.3991 21.972C85.1671 22.42 86.0391 22.644 87.0151 22.644C87.9271 22.644 88.7271 22.444 89.4151 22.044C90.1191 21.628 90.6631 21.02 91.0471 20.22H94.9111C94.3511 21.932 93.3671 23.268 91.9591 24.228C90.5671 25.172 88.9271 25.644 87.0391 25.644C85.4391 25.644 83.9911 25.284 82.6951 24.564C81.4151 23.828 80.3991 22.812 79.6471 21.516C78.9111 20.22 78.5431 18.748 78.5431 17.1ZM99.485 10.62C98.893 10.62 98.397 10.436 97.997 10.068C97.613 9.684 97.421 9.212 97.421 8.652C97.421 8.092 97.613 7.628 97.997 7.26C98.397 6.876 98.893 6.684 99.485 6.684C100.077 6.684 100.565 6.876 100.949 7.26C101.349 7.628 101.549 8.092 101.549 8.652C101.549 9.212 101.349 9.684 100.949 10.068C100.565 10.436 100.077 10.62 99.485 10.62ZM101.141 12.204V25.5H97.781V12.204H101.141ZM110.005 22.404L113.365 12.204H116.941L112.021 25.5H107.941L103.045 12.204H106.645L110.005 22.404ZM120.532 10.62C119.94 10.62 119.444 10.436 119.044 10.068C118.66 9.684 118.468 9.212 118.468 8.652C118.468 8.092 118.66 7.628 119.044 7.26C119.444 6.876 119.94 6.684 120.532 6.684C121.124 6.684 121.612 6.876 121.996 7.26C122.396 7.628 122.596 8.092 122.596 8.652C122.596 9.212 122.396 9.684 121.996 10.068C121.612 10.436 121.124 10.62 120.532 10.62ZM122.188 12.204V25.5H118.828V12.204H122.188ZM129.42 14.964V21.396C129.42 21.844 129.524 22.172 129.732 22.38C129.956 22.572 130.324 22.668 130.836 22.668H132.396V25.5H130.284C127.452 25.5 126.036 24.124 126.036 21.372V14.964H124.452V12.204H126.036V8.916H129.42V12.204H132.396V14.964H129.42ZM133.948 18.804C133.948 17.46 134.212 16.268 134.74 15.228C135.284 14.188 136.012 13.388 136.924 12.828C137.852 12.268 138.884 11.988 140.02 11.988C141.012 11.988 141.876 12.188 142.612 12.588C143.364 12.988 143.964 13.492 144.412 14.1V12.204H147.796V25.5H144.412V23.556C143.98 24.18 143.38 24.7 142.612 25.116C141.86 25.516 140.988 25.716 139.996 25.716C138.876 25.716 137.852 25.428 136.924 24.852C136.012 24.276 135.284 23.468 134.74 22.428C134.212 21.372 133.948 20.164 133.948 18.804ZM144.412 18.852C144.412 18.036 144.252 17.34 143.932 16.764C143.612 16.172 143.18 15.724 142.636 15.42C142.092 15.1 141.508 14.94 140.884 14.94C140.26 14.94 139.684 15.092 139.156 15.396C138.628 15.7 138.196 16.148 137.86 16.74C137.54 17.316 137.38 18.004 137.38 18.804C137.38 19.604 137.54 20.308 137.86 20.916C138.196 21.508 138.628 21.964 139.156 22.284C139.7 22.604 140.276 22.764 140.884 22.764C141.508 22.764 142.092 22.612 142.636 22.308C143.18 21.988 143.612 21.54 143.932 20.964C144.252 20.372 144.412 19.668 144.412 18.852ZM156.166 25.716C155.078 25.716 154.102 25.524 153.238 25.14C152.374 24.74 151.686 24.204 151.174 23.532C150.678 22.86 150.406 22.116 150.358 21.3H153.742C153.806 21.812 154.054 22.236 154.486 22.572C154.934 22.908 155.486 23.076 156.142 23.076C156.782 23.076 157.278 22.948 157.63 22.692C157.998 22.436 158.182 22.108 158.182 21.708C158.182 21.276 157.958 20.956 157.51 20.748C157.078 20.524 156.382 20.284 155.422 20.028C154.43 19.788 153.614 19.54 152.974 19.284C152.35 19.028 151.806 18.636 151.342 18.108C150.894 17.58 150.67 16.868 150.67 15.972C150.67 15.236 150.878 14.564 151.294 13.956C151.726 13.348 152.334 12.868 153.118 12.516C153.918 12.164 154.854 11.988 155.926 11.988C157.51 11.988 158.774 12.388 159.718 13.188C160.662 13.972 161.182 15.036 161.278 16.38H158.062C158.014 15.852 157.79 15.436 157.39 15.132C157.006 14.812 156.486 14.652 155.83 14.652C155.222 14.652 154.75 14.764 154.414 14.988C154.094 15.212 153.934 15.524 153.934 15.924C153.934 16.372 154.158 16.716 154.606 16.956C155.054 17.18 155.75 17.412 156.694 17.652C157.654 17.892 158.446 18.14 159.07 18.396C159.694 18.652 160.23 19.052 160.678 19.596C161.142 20.124 161.382 20.828 161.398 21.708C161.398 22.476 161.182 23.164 160.75 23.772C160.334 24.38 159.726 24.86 158.926 25.212C158.142 25.548 157.222 25.716 156.166 25.716Z" fill="#26245C"/>
<defs>
<clipPath id="clip0_2437_13902">
<rect width="34" height="34" fill="white"/>
</clipPath>
</defs>
</svg>
