<?xml version="1.0" encoding="utf-8"?>
<!-- Generator: Adobe Illustrator 27.3.1, SVG Export Plug-In . SVG Version: 6.00 Build 0)  -->
<svg version="1.1" id="Outline" xmlns="http://www.w3.org/2000/svg" xmlns:xlink="http://www.w3.org/1999/xlink" x="0px" y="0px"
	 viewBox="0 0 48 48" enable-background="new 0 0 48 48" xml:space="preserve">
<g>
	<circle cx="6" cy="24" r="1"/>
	<path d="M40,5H8C6.3457,5,5,6.3457,5,8v12c0,0.55273,0.44727,1,1,1s1-0.44727,1-1V8c0-0.55176,0.44824-1,1-1h32
		c0.55176,0,1,0.44824,1,1v32c0,0.55176-0.44824,1-1,1H8c-0.55176,0-1-0.44824-1-1V28c0-0.55273-0.44727-1-1-1s-1,0.44727-1,1v12
		c0,1.6543,1.3457,3,3,3h32c1.6543,0,3-1.3457,3-3V8C43,6.3457,41.6543,5,40,5z"/>
	<path d="M29,9H12c-1.6543,0-3,1.3457-3,3v24c0,1.6543,1.3457,3,3,3h17c1.6543,0,3-1.3457,3-3v-4c0-0.55273-0.44727-1-1-1
		s-1,0.44727-1,1v4c0,0.55176-0.44824,1-1,1H12c-0.55176,0-1-0.44824-1-1V12c0-0.55176,0.44824-1,1-1h17c0.55176,0,1,0.44824,1,1v4
		c0,0.55273,0.44727,1,1,1s1-0.44727,1-1v-4C32,10.3457,30.6543,9,29,9z"/>
	<path d="M27.47469,29.85063c0.29389,0.18275,0.66357,0.19811,0.97258,0.0439c0.00002-0.00001,10-5,10-5
		C38.78613,24.72461,39,24.37891,39,24s-0.21387-0.72461-0.55273-0.89453l-10-5c-0.30957-0.15332-0.67871-0.13867-0.97266,0.04395
		C27.17969,18.33203,27,18.65332,27,19v2h-7c-0.55273,0-1,0.44727-1,1v4c0,0.55273,0.44727,1,1,1h7v2
		C27,29.34668,27.17969,29.66797,27.47469,29.85063z M21,25v-2h7c0.55273,0,1-0.44727,1-1v-1.38184L35.76367,24L29,27.38184V26
		c0-0.55273-0.44727-1-1-1H21z"/>
</g>
</svg>
