<?xml version="1.0" encoding="UTF-8"?>
<svg id="Outline" xmlns="http://www.w3.org/2000/svg" version="1.1" viewBox="0 0 64 64">
  <!-- Generator: Adobe Illustrator 29.0.0, SVG Export Plug-In . SVG Version: 2.1.0 Build 186)  -->
  <path d="M21.0005,31h12c.55225,0,1-.44775,1-1s-.44775-1-1-1h-12c-.55225,0-1,.44775-1,1s.44775,1,1,1Z"/>
  <path d="M46.98048,35.04999c0-.09998.02002-.19.02002-.28998,0-5.67004-4.29999-10.86005-11-13.39001v-1.37c0-3.52002-2.03998-6.57001-5-8.04999v-.95001c0-2.21002-1.78998-4-4-4s-4,1.78998-4,4v.95001c-2.96002,1.47998-5,4.52997-5,8.04999v1.37c-6.70001,2.52997-11,7.71997-11,13.39001,0,4.01996,2.15997,7.85999,5.96997,10.67999-1.31995,1.64996-3.13995,2.82996-5.21997,3.34998-.42999.10999-.72998.48999-.75.92999-.02002.45001.26001.85004.69.98999l2.08002.69c1.21997.41003,2.46997.60004,3.70996.60004,2.79004,0,5.52002-1,7.69-2.90002,1.92004.44,3.88.66003,5.83002.66003,2.95001,0,5.75-.49005,8.27002-1.36005,1.09998,4.98004,5.51001,8.60004,10.72998,8.60004,2.59998,0,5.06-.90002,7.03998-2.54999l2.25,2.25994c.59112.59373,1.71002.18976,1.71003-.70996v-10c0-5.73004-4.40997-10.45001-10.02002-10.95001ZM25.0005,11c0-1.10004.90002-2,2-2s2,.89996,2,2v.22998c-.64001-.15002-1.31-.22998-2-.22998s-1.35999.07996-2,.22998v-.22998ZM19.93119,22.16664c.0474-.71492.06932-1.43709.06932-2.16664,0-3.85999,3.14001-7,7-7s7,3.14001,7,7.00003c0,3.65434.44865,7.14012,2.10999,10.44998.16003.33997.51001.54999.89001.54999.54999,0,1,.45001,1,1s-.45001,1-1,1h-20c-.54999,0-1-.45001-1-1s.45001-1,1-1c.38,0,.72998-.21002.89001-.54998,1.24704-2.6491,1.85-5.40754,2.04067-8.28337ZM29.82051,35c-.41998,1.15997-1.52002,2-2.82001,2s-2.40002-.84003-2.82001-2h5.64001ZM27.0005,47.76001c-1.96002,0-3.94-.25-5.88-.73004-.33002-.07996-.69.01001-.92999.25-2.47003,2.38-5.95001,3.27002-9.22998,2.39001,1.66998-.90002,3.09998-2.20001,4.15997-3.78998l.08002-.12c.14996-.22003.20001-.5.14996-.76001-.04999-.26001-.20996-.48999-.42999-.63-3.76001-2.47998-5.91998-5.98999-5.91998-9.60999,0-4.60004,3.44-8.86005,8.88-11.19-.22003,1.89996-.73999,3.76996-1.53998,5.5-1.34003.31-2.34003,1.5-2.34003,2.92999,0,1.64996,1.34998,3,3,3h5.09998c.47003,2.27997,2.49005,4,4.90002,4s4.42999-1.72003,4.90002-4h5.09998c1.65002,0,3-1.35004,3-3,0-1.42999-1-2.62-2.34003-2.92999-.79999-1.73004-1.31995-3.60004-1.53998-5.5,5.44,2.32996,8.88,6.58997,8.88,11.19,0,7.16998-8.07001,13-18,13ZM55.0005,53.58997l-1.21997-1.22998c-.39001-.39001-1.03003-.39001-1.42004,0-1.70001,1.70001-3.95996,2.64001-6.35999,2.64001-4.38,0-8.06-3.10999-8.84003-7.34003,5.05005-2.25,8.66003-6.09998,9.58002-10.62,4.62.38,8.26001,4.25,8.26001,8.96002v7.58997Z"/>
</svg>