<svg width="44" height="44" viewBox="0 0 44 44" fill="none" xmlns="http://www.w3.org/2000/svg">
<rect x="0.5" y="0.5" width="43" height="43" rx="21.5" stroke="white"/>
<path d="M18 30C18.2146 30.3648 19.6284 31.2894 20 31.5C20.3716 31.7106 21.5709 32 22 32C22.4291 32 23.6284 31.7106 24 31.5C24.3716 31.2894 25.7854 30.3648 26 30" fill="white"/>
<path d="M11.3193 25.9913C11.1597 26.1631 11.0543 26.3768 11.016 26.6063C10.9778 26.8358 11.0083 27.0713 11.1039 27.2842C11.1994 27.497 11.3559 27.6779 11.5543 27.805C11.7527 27.9322 11.9845 27.9999 12.2214 28.0001H31.7773C32.0142 28.0002 32.246 27.9327 32.4445 27.8058C32.643 27.6789 32.7997 27.4982 32.8955 27.2855C32.9914 27.0728 33.0222 26.8374 32.9842 26.6078C32.9463 26.3783 32.8412 26.1645 32.6818 25.9925C31.0562 24.3473 29.3328 22.5989 29.3328 17.2C29.3328 15.2905 28.5602 13.4591 27.1849 12.1088C25.8096 10.7586 23.9443 10 21.9993 10C20.0544 10 18.1891 10.7586 16.8138 12.1088C15.4385 13.4591 14.6658 15.2905 14.6658 17.2C14.6658 22.5989 12.9413 24.3473 11.3193 25.9913Z" fill="white"/>
</svg>
