<?xml version="1.0" encoding="UTF-8"?>
<svg id="Outline" xmlns="http://www.w3.org/2000/svg" version="1.1" viewBox="0 0 64 64">
  <!-- Generator: Adobe Illustrator 29.0.0, SVG Export Plug-In . SVG Version: 2.1.0 Build 186)  -->
  <path d="M41,28c0,.55225.44775,1,1,1s1-.44775,1-1c0-2.44482-.79102-4.76514-2.2876-6.70996-.33643-.43799-.96484-.51904-1.40234-.18262-.4375.33691-.51953.96436-.18262,1.40234,1.2251,1.59229,1.87256,3.49072,1.87256,5.49023Z"/>
  <path d="M32,19c1.53613,0,3.06152.39844,4.41211,1.15283.1547.08638.32159.12691.4866.12695.97577.00027,1.38681-1.37178.48898-1.87305-1.64795-.92041-3.51123-1.40674-5.3877-1.40674-.55225,0-1,.44775-1,1s.44775,1,1,1Z"/>
  <path d="M49.65088,45.05273c-1.73584-3.65869-2.65088-7.7124-2.65088-11.76074v-5.29199c0-6.88416-4.66766-12.68512-11-14.44189v-2.55811c0-2.20557-1.79443-4-4-4s-4,1.79443-4,4v2.55811c-6.33234,1.75677-11,7.55774-11,14.44189v5.29199c0,4.04834-.91504,8.10205-2.65088,11.76074-1.89746.31201-3.34912,1.96338-3.34912,3.94727,0,2.20557,1.79443,4,4,4h12.10107c.46466,2.2793,2.4845,4,4.89893,4s4.43427-1.7207,4.89893-4h12.10107c2.20557,0,4-1.79443,4-4,0-1.98389-1.45166-3.63525-3.34912-3.94727ZM30,11c0-1.10303.89697-2,2-2s2,.89697,2,2v2.14929c-.65601-.08801-1.32025-.14929-2-.14929s-1.34399.06128-2,.14929v-2.14929ZM32,55c-1.30194,0-2.40155-.8385-2.81567-2h5.63141c-.41412,1.1615-1.51379,2-2.81573,2ZM49,51H15c-1.10303,0-2-.89697-2-2s.89697-2,2-2c.37891,0,.7251-.21387.89453-.55273,2.03174-4.06396,3.10547-8.61279,3.10547-13.15527v-5.29199c0-7.16846,5.83154-13,13-13s13,5.83154,13,13v5.29199c0,4.54248,1.07373,9.09131,3.10547,13.15527.16943.33887.51562.55273.89453.55273,1.10303,0,2,.89697,2,2s-.89697,2-2,2Z"/>
  <path d="M44,45h-24c-.55225,0-1,.44775-1,1s.44775,1,1,1h24c.55225,0,1-.44775,1-1s-.44775-1-1-1Z"/>
</svg>