<svg width="44" height="44" viewBox="0 0 44 44" fill="none" xmlns="http://www.w3.org/2000/svg">
<rect x="0.5" y="0.5" width="43" height="43" rx="21.5" fill="white"/>
<rect x="0.5" y="0.5" width="43" height="43" rx="21.5" stroke="white"/>
<path fill-rule="evenodd" clip-rule="evenodd" d="M20.25 12.3752C19.2158 12.3752 18.1918 12.5789 17.2364 12.9746C16.2809 13.3704 15.4128 13.9505 14.6815 14.6817C13.9503 15.413 13.3702 16.2811 12.9744 17.2366C12.5787 18.192 12.375 19.216 12.375 20.2502C12.375 21.2844 12.5787 22.3084 12.9744 23.2638C13.3702 24.2193 13.9503 25.0874 14.6815 25.8187C15.4128 26.5499 16.2809 27.13 17.2364 27.5257C18.1918 27.9215 19.2158 28.1252 20.25 28.1252C22.3386 28.1252 24.3416 27.2955 25.8185 25.8187C27.2953 24.3418 28.125 22.3388 28.125 20.2502C28.125 18.1616 27.2953 16.1586 25.8185 14.6817C24.3416 13.2049 22.3386 12.3752 20.25 12.3752ZM10.625 20.2502C10.6252 18.7045 10.9977 17.1815 11.7109 15.8102C12.4242 14.4389 13.4572 13.2595 14.7226 12.3718C15.988 11.4842 17.4486 10.9143 18.9809 10.7105C20.5131 10.5067 22.0719 10.6749 23.5253 11.2009C24.9788 11.7269 26.2842 12.5952 27.3311 13.7324C28.3781 14.8696 29.1357 16.2422 29.54 17.7341C29.9442 19.226 29.9833 20.7934 29.6537 22.3036C29.3241 23.8137 28.6357 25.2223 27.6467 26.4102L33.1183 31.8819C33.2043 31.962 33.2733 32.0586 33.3211 32.1659C33.3689 32.2732 33.3946 32.3891 33.3967 32.5066C33.3988 32.6241 33.3772 32.7408 33.3331 32.8497C33.2891 32.9587 33.2236 33.0577 33.1405 33.1407C33.0575 33.2238 32.9585 33.2893 32.8495 33.3333C32.7406 33.3773 32.6239 33.399 32.5064 33.3969C32.3889 33.3948 32.273 33.3691 32.1657 33.3213C32.0584 33.2735 31.9618 33.2045 31.8817 33.1185L26.41 27.6469C25.0044 28.8176 23.2943 29.5636 21.48 29.7973C19.6658 30.0311 17.8224 29.743 16.166 28.9668C14.5095 28.1906 13.1086 26.9585 12.1272 25.4147C11.1459 23.8709 10.6248 22.0795 10.625 20.2502Z" fill="#5278F1"/>
</svg>
