<?xml version="1.0" encoding="UTF-8"?>
<svg id="Content" xmlns="http://www.w3.org/2000/svg" viewBox="0 0 500 500">
  <path d="M488.93,69.13c-2.3-7.1-7.99-12.37-15.19-14.16l-22.97-5.67-12.66-20.13c-7.87-12.51-28.24-12.47-36.12,0l-12.66,20.13-22.32,5.5c-71.02-43.54-163.05-43.54-234.07,0l-22.29-5.5-12.66-20.11c-3.91-6.26-10.66-9.98-18.02-10.01-7.5-.21-14.13,3.73-18.09,9.98l-12.66,20.13-23.01,5.67c-7.22,1.8-12.89,7.12-15.19,14.23-2.27,7.1-.77,14.74,4.03,20.41l15.12,17.91-1.64,23.41c-.52,7.41,2.74,14.44,8.74,18.82,2.42,1.77,5.15,2.75,7.96,3.38-14.16,30.42-21.81,63.62-21.81,97.63,0,63.46,26.01,124.55,71.33,167.71.1.1.14.25.24.35,8.49,8.07,17.63,15.21,27.09,21.79,73.46,53.09,179.71,53.63,253.77,1.44,10.2-6.93,20.01-14.57,29.11-23.22.13-.13.18-.31.31-.45,45.3-43.17,71.27-104.21,71.27-167.62,0-33.99-7.63-67.17-21.78-97.57,2.8-.63,5.53-1.67,7.95-3.44,6-4.38,9.26-11.41,8.74-18.82l-1.66-23.44,15.14-17.88c4.8-5.72,6.3-13.38,3.98-20.48ZM36.05,77.27l23.65-5.84c3.02-.75,5.62-2.62,7.27-5.25l12.98-20.62,13.01,20.62c1.64,2.62,4.27,4.5,7.27,5.25l23.6,5.84-15.59,18.47c-2.02,2.37-3.02,5.46-2.81,8.58l1.71,24.16-22.73-9.09c-1.43-.59-2.93-.87-4.45-.87s-3.02.28-4.45.87l-22.71,9.09,1.69-24.14c.21-3.12-.8-6.21-2.81-8.58l-15.61-18.49ZM377.43,410.91c-73.44,63.18-191.34,60.42-261.82-6.01,3.36-34.44,32.13-61.6,66.51-61.6h135.74c34.38,0,63.14,27.16,66.51,61.59-2.28,2.06-4.58,4.08-6.94,6.03ZM240.52,191.57c17.92,14.76,43.42,29.86,76.53,36.01v24.66c0,36.98-30.07,67.05-67.05,67.05s-67.05-30.07-67.05-67.05v-25.6c17.87-4.14,41.49-13.57,57.58-35.07ZM183.15,201.84c.57-19.17,9.23-36.18,22.66-48.05.04.07.04.16.09.23.27.45,6.14,9.49,16.88,20.89-10.3,15.1-26.1,22.98-39.62,26.93ZM226.24,141.32c7.41-2.83,15.36-4.55,23.75-4.55,36.79,0,66.68,29.77,66.99,66.49-32.49-7.14-56.15-24.5-70.91-38.77-13.01-12.37-19.71-23.01-19.78-23.11-.02-.03-.04-.04-.06-.06ZM404.19,384.4c-11.62-37.5-45.94-65.11-86.33-65.11h-6.79c18.28-16.66,29.97-40.43,29.97-67.05v-48.42c0-50.2-40.85-91.05-91.05-91.05s-91.05,40.85-91.05,91.05v48.42c0,26.62,11.69,50.39,29.97,67.05h-6.79c-40.4,0-74.72,27.62-86.33,65.12-30.9-36.98-48.35-84.49-48.35-133.65,0-37.55,10.25-74.07,29.33-106.04l3.18-1.27,22.17,8.86c6.87,2.74,14.53,1.8,20.48-2.55,6.02-4.36,9.28-11.41,8.77-18.82l-1.66-23.44,15.09-17.86c3.97-4.7,5.54-10.71,4.75-16.66,61.56-35.73,139.34-35.73,200.9,0-.8,5.96.78,11.97,4.75,16.64l15.12,17.91-1.66,23.41c-.52,7.41,2.74,14.44,8.74,18.82,3.73,2.72,8.11,4.1,12.54,4.1,2.67,0,5.37-.49,7.94-1.55l22.17-8.86,3.18,1.27c19.07,31.97,29.33,68.5,29.33,106.04,0,49.15-17.45,96.65-48.36,133.63ZM448.34,95.71c-2.02,2.39-3.02,5.48-2.81,8.6l1.71,24.16-22.73-9.09c-1.43-.59-2.93-.87-4.45-.87s-3.02.28-4.45.87l-22.71,9.09,1.71-24.14c.21-3.12-.8-6.21-2.81-8.58l-15.61-18.49,23.62-5.84c3.02-.75,5.62-2.62,7.27-5.25l12.98-20.65,13.01,20.65c1.64,2.62,4.24,4.5,7.27,5.25l23.62,5.84-15.61,18.44Z"/>
</svg>