<svg width="40" height="40" viewBox="0 0 40 40" fill="none" xmlns="http://www.w3.org/2000/svg">
<rect width="40" height="40" rx="20" fill="#3459FF"/>
<path d="M21.5419 23.6877C21.7158 23.7676 21.9118 23.7858 22.0974 23.7395C22.2831 23.6931 22.4475 23.5848 22.5634 23.4326L22.8623 23.041C23.0192 22.8318 23.2226 22.662 23.4565 22.5451C23.6904 22.4282 23.9482 22.3673 24.2097 22.3673H26.736C27.1827 22.3673 27.6111 22.5447 27.9269 22.8606C28.2428 23.1764 28.4202 23.6048 28.4202 24.0515V26.5778C28.4202 27.0245 28.2428 27.4529 27.9269 27.7687C27.6111 28.0846 27.1827 28.262 26.736 28.262C22.7159 28.262 18.8604 26.665 16.0178 23.8224C13.1751 20.9797 11.5781 17.1243 11.5781 13.1041C11.5781 12.6575 11.7556 12.2291 12.0714 11.9132C12.3873 11.5974 12.8157 11.4199 13.2623 11.4199H15.7887C16.2353 11.4199 16.6637 11.5974 16.9796 11.9132C17.2954 12.2291 17.4729 12.6575 17.4729 13.1041V15.6304C17.4729 15.8919 17.412 16.1498 17.2951 16.3837C17.1781 16.6175 17.0083 16.8209 16.7992 16.9778L16.4051 17.2734C16.2505 17.3914 16.1415 17.5594 16.0967 17.7486C16.0519 17.9379 16.0739 18.1369 16.1592 18.3117C17.3101 20.6493 19.2029 22.5398 21.5419 23.6877Z" stroke="white" stroke-width="1.65342" stroke-linecap="round" stroke-linejoin="round"/>
</svg>
