<svg width="40" height="40" viewBox="0 0 40 40" fill="none" xmlns="http://www.w3.org/2000/svg">
<rect width="40" height="40" rx="20" fill="#3459FF"/>
<path d="M14.2113 30.6139C13.4073 30.6139 12.7238 30.3324 12.1609 29.7696C11.598 29.2067 11.3166 28.5232 11.3166 27.7191C11.3166 26.9151 11.598 26.2316 12.1609 25.6687C12.7238 25.1058 13.4073 24.8244 14.2113 24.8244C14.4365 24.8244 14.6456 24.8485 14.8385 24.8968C15.0315 24.945 15.2165 25.0093 15.3934 25.0898L16.7684 23.377C16.3181 22.8785 16.0045 22.3156 15.8276 21.6884C15.6507 21.0612 15.6105 20.4341 15.707 19.8069L13.753 19.1555C13.4796 19.5576 13.1339 19.8792 12.7157 20.1205C12.2976 20.3617 11.8312 20.4823 11.3166 20.4823C10.5125 20.4823 9.82904 20.2009 9.26617 19.638C8.70331 19.0751 8.42188 18.3917 8.42188 17.5876C8.42188 16.7835 8.70331 16.1 9.26617 15.5371C9.82904 14.9743 10.5125 14.6928 11.3166 14.6928C12.1207 14.6928 12.8042 14.9743 13.3671 15.5371C13.9299 16.1 14.2113 16.7835 14.2113 17.5876V17.7805L16.1653 18.456C16.4869 17.877 16.9171 17.3865 17.4559 16.9845C17.9946 16.5824 18.6017 16.3251 19.2771 16.2126V14.1139C18.6499 13.937 18.1313 13.5952 17.7212 13.0887C17.3111 12.5821 17.1061 11.9911 17.1061 11.3156C17.1061 10.5115 17.3875 9.82806 17.9504 9.2652C18.5132 8.70233 19.1967 8.4209 20.0008 8.4209C20.8049 8.4209 21.4884 8.70233 22.0513 9.2652C22.6141 9.82806 22.8956 10.5115 22.8956 11.3156C22.8956 11.9911 22.6865 12.5821 22.2684 13.0887C21.8502 13.5952 21.3356 13.937 20.7245 14.1139V16.2126C21.3999 16.3251 22.007 16.5824 22.5458 16.9845C23.0845 17.3865 23.5147 17.877 23.8363 18.456L25.7903 17.7805V17.5876C25.7903 16.7835 26.0717 16.1 26.6346 15.5371C27.1975 14.9743 27.8809 14.6928 28.685 14.6928C29.4891 14.6928 30.1726 14.9743 30.7355 15.5371C31.2983 16.1 31.5798 16.7835 31.5798 17.5876C31.5798 18.3917 31.2983 19.0751 30.7355 19.638C30.1726 20.2009 29.4891 20.4823 28.685 20.4823C28.1704 20.4823 27.7 20.3617 27.2738 20.1205C26.8477 19.8792 26.5059 19.5576 26.2486 19.1555L24.2947 19.8069C24.3912 20.4341 24.351 21.0572 24.1741 21.6764C23.9972 22.2955 23.6836 22.8624 23.2333 23.377L24.6083 25.0656C24.7852 24.9852 24.9701 24.9249 25.1631 24.8847C25.3561 24.8445 25.5651 24.8244 25.7903 24.8244C26.5944 24.8244 27.2779 25.1058 27.8407 25.6687C28.4036 26.2316 28.685 26.9151 28.685 27.7191C28.685 28.5232 28.4036 29.2067 27.8407 29.7696C27.2779 30.3324 26.5944 30.6139 25.7903 30.6139C24.9862 30.6139 24.3027 30.3324 23.7399 29.7696C23.177 29.2067 22.8956 28.5232 22.8956 27.7191C22.8956 27.3975 22.9478 27.0879 23.0524 26.7904C23.1569 26.4929 23.2976 26.2235 23.4745 25.9823L22.0995 24.2696C21.4401 24.6395 20.7366 24.8244 19.9888 24.8244C19.241 24.8244 18.5374 24.6395 17.878 24.2696L16.5271 25.9823C16.704 26.2235 16.8448 26.4929 16.9493 26.7904C17.0538 27.0879 17.1061 27.3975 17.1061 27.7191C17.1061 28.5232 16.8247 29.2067 16.2618 29.7696C15.6989 30.3324 15.0154 30.6139 14.2113 30.6139ZM11.3166 18.5525C11.59 18.5525 11.8192 18.46 12.0041 18.2751C12.1891 18.0901 12.2815 17.861 12.2815 17.5876C12.2815 17.3142 12.1891 17.085 12.0041 16.9001C11.8192 16.7151 11.59 16.6227 11.3166 16.6227C11.0432 16.6227 10.8141 16.7151 10.6291 16.9001C10.4442 17.085 10.3517 17.3142 10.3517 17.5876C10.3517 17.861 10.4442 18.0901 10.6291 18.2751C10.8141 18.46 11.0432 18.5525 11.3166 18.5525ZM14.2113 28.6841C14.4847 28.6841 14.7139 28.5916 14.8988 28.4066C15.0838 28.2217 15.1763 27.9925 15.1763 27.7191C15.1763 27.4458 15.0838 27.2166 14.8988 27.0316C14.7139 26.8467 14.4847 26.7542 14.2113 26.7542C13.938 26.7542 13.7088 26.8467 13.5238 27.0316C13.3389 27.2166 13.2464 27.4458 13.2464 27.7191C13.2464 27.9925 13.3389 28.2217 13.5238 28.4066C13.7088 28.5916 13.938 28.6841 14.2113 28.6841ZM20.0008 12.2805C20.2742 12.2805 20.5034 12.1881 20.6883 12.0031C20.8733 11.8182 20.9657 11.589 20.9657 11.3156C20.9657 11.0422 20.8733 10.8131 20.6883 10.6281C20.5034 10.4432 20.2742 10.3507 20.0008 10.3507C19.7274 10.3507 19.4983 10.4432 19.3133 10.6281C19.1284 10.8131 19.0359 11.0422 19.0359 11.3156C19.0359 11.589 19.1284 11.8182 19.3133 12.0031C19.4983 12.1881 19.7274 12.2805 20.0008 12.2805ZM20.0008 22.8946C20.6763 22.8946 21.2472 22.6614 21.7135 22.195C22.1799 21.7286 22.4131 21.1577 22.4131 20.4823C22.4131 19.8069 22.1799 19.236 21.7135 18.7696C21.2472 18.3032 20.6763 18.07 20.0008 18.07C19.3254 18.07 18.7545 18.3032 18.2881 18.7696C17.8217 19.236 17.5885 19.8069 17.5885 20.4823C17.5885 21.1577 17.8217 21.7286 18.2881 22.195C18.7545 22.6614 19.3254 22.8946 20.0008 22.8946ZM25.7903 28.6841C26.0637 28.6841 26.2929 28.5916 26.4778 28.4066C26.6627 28.2217 26.7552 27.9925 26.7552 27.7191C26.7552 27.4458 26.6627 27.2166 26.4778 27.0316C26.2929 26.8467 26.0637 26.7542 25.7903 26.7542C25.5169 26.7542 25.2877 26.8467 25.1028 27.0316C24.9179 27.2166 24.8254 27.4458 24.8254 27.7191C24.8254 27.9925 24.9179 28.2217 25.1028 28.4066C25.2877 28.5916 25.5169 28.6841 25.7903 28.6841ZM28.685 18.5525C28.9584 18.5525 29.1876 18.46 29.3725 18.2751C29.5575 18.0901 29.6499 17.861 29.6499 17.5876C29.6499 17.3142 29.5575 17.085 29.3725 16.9001C29.1876 16.7151 28.9584 16.6227 28.685 16.6227C28.4116 16.6227 28.1825 16.7151 27.9975 16.9001C27.8126 17.085 27.7201 17.3142 27.7201 17.5876C27.7201 17.861 27.8126 18.0901 27.9975 18.2751C28.1825 18.46 28.4116 18.5525 28.685 18.5525Z" fill="white"/>
</svg>
