<svg width="40" height="40" viewBox="0 0 40 40" fill="none" xmlns="http://www.w3.org/2000/svg">
<rect width="40" height="40" rx="20" fill="#3459FF"/>
<path d="M17.2094 21.2359L22.8012 24.4944M22.793 15.5049L17.2094 18.7634M27.3697 14.2686C27.3697 15.6251 26.27 16.7248 24.9135 16.7248C23.557 16.7248 22.4574 15.6251 22.4574 14.2686C22.4574 12.9122 23.557 11.8125 24.9135 11.8125C26.27 11.8125 27.3697 12.9122 27.3697 14.2686ZM17.5451 19.9996C17.5451 21.3561 16.4454 22.4558 15.089 22.4558C13.7325 22.4558 12.6328 21.3561 12.6328 19.9996C12.6328 18.6431 13.7325 17.5435 15.089 17.5435C16.4454 17.5435 17.5451 18.6431 17.5451 19.9996ZM27.3697 25.7306C27.3697 27.0871 26.27 28.1868 24.9135 28.1868C23.557 28.1868 22.4574 27.0871 22.4574 25.7306C22.4574 24.3741 23.557 23.2745 24.9135 23.2745C26.27 23.2745 27.3697 24.3741 27.3697 25.7306Z" stroke="white" stroke-width="1.5" stroke-linecap="round" stroke-linejoin="round"/>
</svg>
